HIERARCHY
ROOT Joint1
{
	OFFSET 0.000000 0.000000 0.000000
	CHANNELS 6 Xposition Yposition Zposition Xrotation Yrotation Zrotation
	JOINT Joint2
	{
		OFFSET -0.000000 0.000000 1.456275
		CHANNELS 6 Xposition Yposition Zposition Xrotation Yrotation Zrotation
		JOINT Joint3
		{
			OFFSET -0.000000 0.000002 1.471446
			CHANNELS 6 Xposition Yposition Zposition Xrotation Yrotation Zrotation
			JOINT Joint4
			{
				OFFSET 0.625745 0.000000 0.917755
				CHANNELS 6 Xposition Yposition Zposition Xrotation Yrotation Zrotation
				JOINT Joint5
				{
					OFFSET -0.629534 0.000001 0.940221
					CHANNELS 6 Xposition Yposition Zposition Xrotation Yrotation Zrotation
					JOINT Joint6
					{
						OFFSET -0.000001 0.113772 1.960660
						CHANNELS 6 Xposition Yposition Zposition Xrotation Yrotation Zrotation
						JOINT Joint7
						{
							OFFSET -0.669733 -0.113771 0.388340
							CHANNELS 6 Xposition Yposition Zposition Xrotation Yrotation Zrotation
							End Site
							{
								OFFSET 0.005509 0.005509 0.438980
							}
						}
					}
				}
			}
		}
	}
}
MOTION
Frames: 24
Frame Time: 0.041667
0.000000 0.000000 0.000000 -0.000000 1.019410 0.000540 -0.000000 0.000000 1.456275 -0.000000 -44.954345 -0.000000 -0.000001 0.000002 1.471445 0.000000 -1.133458 -0.055256 0.625745 0.000000 0.917755 0.000004 135.000123 -0.000001 -0.629534 0.000001 0.940221 -0.000000 1.709736 -0.031968 -0.000000 0.113772 1.960661 -88.272545 90.006286 0.018555 -0.669733 -0.113771 0.388339 -0.705597 3.566198 134.988102 
0.000000 0.000000 0.000000 -0.000000 1.019410 0.004404 -0.000000 0.000000 1.456275 -0.000000 -44.880026 0.000000 -0.000000 0.000002 1.471445 0.000000 -1.133461 -0.107436 0.625744 0.000000 0.917754 0.000004 134.945523 -0.000001 -0.629533 0.000001 0.940221 -0.000000 1.709736 -0.092851 -0.000000 0.113772 1.960661 -88.301765 90.085257 0.001428 -0.669733 -0.113771 0.388340 -0.706624 3.566198 135.045927 
0.000000 0.000000 0.000000 -0.000000 1.019410 0.010884 -0.000000 0.000000 1.456275 -0.000000 -44.755412 0.000000 -0.000000 0.000002 1.471446 0.000000 -1.133461 -0.194937 0.625745 0.000000 0.917755 0.000004 134.853903 -0.000001 -0.629533 0.000001 0.940221 -0.000000 1.709736 -0.194949 -0.000001 0.113772 1.960661 -88.302953 90.217687 0.000566 -0.669733 -0.113771 0.388339 -0.708347 3.566195 135.142915 
0.000000 0.000000 0.000000 -0.000000 1.019410 0.020012 -0.000000 0.000000 1.456275 -0.000000 -44.579852 -0.000000 -0.000001 0.000002 1.471445 -0.000000 -1.133462 -0.318198 0.625744 0.000000 0.917755 0.000004 134.724867 -0.000001 -0.629534 0.000001 0.940221 -0.000000 1.709736 -0.338772 -0.000001 0.113772 1.960660 -88.303438 90.404240 0.000289 -0.669733 -0.113771 0.388340 -0.710773 3.566186 135.279519 
0.000000 0.000000 0.000000 -0.000000 1.019410 0.031821 -0.000000 0.000000 1.456275 -0.000000 -44.352742 0.000000 -0.000000 0.000002 1.471445 0.000000 -1.133459 -0.477658 0.625744 0.000000 0.917755 0.000004 134.557937 -0.000001 -0.629534 0.000001 0.940221 0.000000 1.709736 -0.524831 -0.000001 0.113772 1.960660 -88.303582 90.645571 0.000197 -0.669733 -0.113771 0.388340 -0.713912 3.566165 135.456257 
0.000000 0.000000 0.000000 -0.000000 1.019410 0.046342 -0.000000 0.000000 1.456275 0.000000 -44.073452 0.000000 -0.000000 0.000002 1.471446 -0.000000 -1.133457 -0.673754 0.625745 0.000000 0.917755 0.000004 134.352649 -0.000001 -0.629534 0.000001 0.940221 0.000000 1.709736 -0.753639 -0.000001 0.113772 1.960661 -88.303670 90.942350 0.000131 -0.669733 -0.113771 0.388340 -0.717772 3.566127 135.673566 
0.000000 0.000000 0.000000 -0.000000 1.019410 0.063609 -0.000000 0.000000 1.456275 -0.000000 -43.741365 -0.000000 -0.000000 0.000002 1.471446 -0.000000 -1.133464 -0.906925 0.625745 0.000000 0.917755 0.000004 134.108551 -0.000001 -0.629533 0.000001 0.940221 0.000000 1.709736 -1.025706 -0.000001 0.113772 1.960661 -88.303739 91.295245 0.000095 -0.669733 -0.113771 0.388339 -0.722362 3.566063 135.932007 
0.000000 0.000000 0.000000 -0.000000 1.019410 0.083654 -0.000000 0.000000 1.456275 -0.000000 -43.355845 -0.000000 -0.000000 0.000002 1.471446 0.000000 -1.133459 -1.177610 0.625744 0.000000 0.917755 0.000004 133.825180 -0.000001 -0.629534 0.000001 0.940221 -0.000000 1.709736 -1.341544 -0.000001 0.113772 1.960660 -88.303773 91.704913 0.000068 -0.669733 -0.113771 0.388339 -0.727689 3.565964 136.231989 
0.000000 0.000000 0.000000 -0.000000 1.019410 0.106510 -0.000000 0.000000 1.456275 -0.000000 -42.916268 0.000000 -0.000000 0.000002 1.471446 -0.000000 -1.133460 -1.486246 0.625745 0.000000 0.917755 0.000004 133.502085 -0.000001 -0.629533 0.000001 0.940221 0.000000 1.709737 -1.701664 -0.000001 0.113772 1.960661 -88.303800 92.172016 0.000057 -0.669733 -0.113771 0.388340 -0.733763 3.565815 136.574058 
0.000000 0.000000 0.000000 -0.000000 1.019410 0.132208 -0.000000 0.000000 1.456275 -0.000000 -42.422025 -0.000000 -0.000000 0.000002 1.471446 -0.000000 -1.133465 -1.833271 0.625745 0.000000 0.917755 0.000004 133.138801 -0.000001 -0.629534 0.000001 0.940221 0.000000 1.709736 -2.106578 -0.000000 0.113772 1.960660 -88.303814 92.697217 0.000046 -0.669733 -0.113771 0.388339 -0.740591 3.565605 136.958653 
0.000000 0.000000 0.000000 -0.000000 1.019410 0.160782 -0.000000 0.000000 1.456275 -0.000000 -41.872478 -0.000000 -0.000000 0.000002 1.471446 -0.000000 -1.133461 -2.219125 0.625744 0.000000 0.917755 0.000003 132.734864 -0.000001 -0.629534 0.000001 0.940221 0.000000 1.709736 -2.556796 -0.000001 0.113772 1.960660 -88.303821 93.281184 0.000034 -0.669733 -0.113771 0.388340 -0.748182 3.565318 137.386277 
0.000000 0.000000 0.000000 -0.000000 1.019410 0.192263 -0.000000 0.000000 1.456275 0.000000 -41.267006 -0.000000 -0.000000 0.000002 1.471445 0.000000 -1.133460 -2.644244 0.625744 0.000000 0.917755 0.000004 132.289809 -0.000001 -0.629534 0.000001 0.940221 -0.000000 1.709736 -3.052831 -0.000001 0.113772 1.960661 -88.303834 93.924581 0.000029 -0.669733 -0.113771 0.388340 -0.756542 3.564935 137.857437 
0.000000 0.000000 0.000000 -0.000000 1.019410 0.226612 -0.000000 -0.000000 1.456275 -0.000000 -40.606393 -0.000000 -0.000000 0.000002 1.471446 0.000000 -1.133456 -3.108079 0.625745 0.000000 0.917755 0.000003 131.804237 -0.000002 -0.629534 0.000001 0.940221 -0.000000 1.709737 -3.594040 -0.000001 0.113772 1.960660 -88.303848 94.626568 0.000030 -0.669733 -0.113771 0.388340 -0.765659 3.564441 138.371491 
0.000000 0.000000 0.000000 -0.000000 1.019410 0.263493 -0.000000 0.000000 1.456275 -0.000000 -39.897061 -0.000000 -0.000000 0.000002 1.471446 0.000000 -1.133456 -3.606122 0.625745 0.000000 0.917755 0.000004 131.282875 -0.000001 -0.629534 0.000001 0.940221 0.000000 1.709736 -4.175161 -0.000001 0.113772 1.960660 -88.303848 95.380327 0.000022 -0.669733 -0.113771 0.388340 -0.775443 3.563816 138.923452 
0.000000 0.000000 0.000000 -0.000000 1.019410 0.302501 -0.000000 0.000000 1.456275 0.000000 -39.146840 -0.000000 -0.000000 0.000002 1.471446 -0.000000 -1.133460 -4.132876 0.625745 0.000000 0.917755 0.000004 130.731419 -0.000001 -0.629534 0.000001 0.940221 -0.000000 1.709736 -4.789784 -0.000001 0.113772 1.960660 -88.303855 96.177547 0.000017 -0.669733 -0.113771 0.388340 -0.785784 3.563056 139.507256 
0.000000 0.000000 0.000000 -0.000000 1.019410 0.343228 -0.000000 -0.000000 1.456275 0.000000 -38.363557 -0.000000 -0.000000 0.000002 1.471446 -0.000000 -1.133463 -4.682843 0.625744 0.000000 0.917755 0.000003 130.155661 -0.000001 -0.629534 0.000001 0.940221 0.000000 1.709736 -5.431492 0.000000 0.113772 1.960661 -88.303855 97.009887 0.000017 -0.669733 -0.113771 0.388340 -0.796573 3.562152 140.116755 
0.000000 0.000000 0.000000 -0.000000 1.019410 0.385267 -0.000000 0.000000 1.456275 0.000000 -37.555037 -0.000000 -0.000000 0.000002 1.471446 -0.000000 -1.133462 -5.250528 0.625745 0.000000 0.917755 0.000004 129.561380 -0.000001 -0.629534 0.000001 0.940221 -0.000000 1.709736 -6.093874 -0.000000 0.113772 1.960660 -88.303862 97.869050 0.000016 -0.669733 -0.113771 0.388340 -0.807697 3.561095 140.745911 
0.000000 0.000000 0.000000 -0.000000 1.019410 0.428521 -0.000000 0.000000 1.456275 0.000000 -36.723144 -0.000000 -0.000000 0.000002 1.471445 -0.000000 -1.133459 -5.834627 0.625744 0.000000 0.917755 0.000004 128.949914 -0.000002 -0.629534 0.000001 0.940221 -0.000001 1.709737 -6.775409 -0.000001 0.113772 1.960660 -88.303862 98.753047 0.000015 -0.669733 -0.113771 0.388341 -0.819131 3.559882 141.393249 
0.000000 0.000000 0.000000 -0.000000 1.019410 0.474136 -0.000000 0.000000 1.456275 0.000000 -35.845844 0.000000 -0.000000 0.000002 1.471445 -0.000000 -1.133461 -6.450602 0.625745 0.000000 0.917755 0.000005 128.305063 -0.000001 -0.629534 0.000001 0.940221 0.000000 1.709736 -7.494137 -0.000001 0.113772 1.960661 -88.303862 99.685300 0.000015 -0.669733 -0.113771 0.388340 -0.831172 3.558462 142.075926 
0.000000 0.000000 0.000000 -0.000000 1.019410 0.523567 -0.000000 0.000000 1.456275 0.000000 -34.895150 -0.000000 -0.000001 0.000002 1.471446 -0.000000 -1.133462 -7.118112 0.625745 0.000000 0.917755 0.000003 127.606266 -0.000001 -0.629534 0.000001 0.940221 0.000000 1.709736 -8.272997 -0.000001 0.113772 1.960661 -88.303862 100.695532 0.000008 -0.669733 -0.113771 0.388340 -0.844203 3.556762 142.815731 
0.000000 0.000000 0.000000 -0.000000 1.019410 0.578270 -0.000000 0.000000 1.456275 0.000000 -33.843061 0.000000 -0.000000 0.000002 1.471446 -0.000000 -1.133460 -7.856813 0.625745 0.000000 0.917755 0.000003 126.832952 -0.000002 -0.629533 0.000001 0.940221 -0.000000 1.709736 -9.134919 -0.000001 0.113772 1.960660 -88.303868 101.813518 0.000010 -0.669733 -0.113771 0.388340 -0.858596 3.554686 143.634384 
0.000000 0.000000 0.000000 -0.000000 1.019410 0.639060 -0.000000 -0.000000 1.456275 -0.000000 -32.673911 -0.000000 -0.000000 0.000002 1.471446 -0.000000 -1.133458 -8.677712 0.625745 0.000000 0.917755 0.000005 125.973578 -0.000001 -0.629534 0.000001 0.940221 0.000000 1.709736 -10.092755 -0.000001 0.113772 1.960660 -88.303868 103.055909 0.000008 -0.669733 -0.113771 0.388340 -0.874550 3.552139 144.544152 
0.000000 0.000000 0.000000 -0.000000 1.019410 0.704191 -0.000000 0.000000 1.456275 0.000000 -31.421278 0.000000 -0.000000 0.000002 1.471446 -0.000000 -1.133461 -9.557217 0.625744 0.000000 0.917755 0.000005 125.052841 -0.000001 -0.629534 0.000001 0.940221 0.000000 1.709736 -11.118975 -0.000000 0.113772 1.960661 -88.303875 104.386990 0.000006 -0.669733 -0.113772 0.388340 -0.891600 3.549131 145.518888 
0.000000 0.000000 0.000000 -0.000000 1.019410 0.771274 -0.000000 -0.000000 1.456275 0.000000 -30.131093 -0.000000 -0.000001 0.000002 1.471446 -0.000000 -1.133463 -10.463097 0.625744 0.000000 0.917755 0.000003 124.104510 -0.000002 -0.629534 0.000001 0.940221 -0.000000 1.709737 -12.175963 -0.000001 0.113772 1.960661 -88.303875 105.757987 0.000006 -0.669733 -0.113771 0.388340 -0.909103 3.545727 146.522830 
